<?xml version="1.0" encoding="utf-8"?>
<!-- Generator: Adobe Illustrator 24.3.0, SVG Export Plug-In . SVG Version: 6.00 Build 0)  -->
<svg version="1.1" xmlns="http://www.w3.org/2000/svg" xmlns:xlink="http://www.w3.org/1999/xlink" x="0px" y="0px"
	 viewBox="0 0 29.9 30.2" style="enable-background:new 0 0 29.9 30.2;" xml:space="preserve">
<style type="text/css">
	.st0{fill:#9AA0A6;}
</style>
<g id="Layer_2">
</g>
<g id="Layer_1">
	<g>
		<path class="st0" d="M12,24C5.4,24,0,18.6,0,12S5.4,0,12,0s12,5.4,12,12S18.6,24,12,24z M12,3c-5,0-9,4-9,9c0,5,4,9,9,9
			c5,0,9-4,9-9C21,7,17,3,12,3z"/>
	</g>
	<g>
		<path class="st0" d="M28.4,30.2c-0.4,0-0.8-0.1-1.1-0.4l-9-9c-0.6-0.6-0.6-1.5,0-2.1c0.6-0.6,1.5-0.6,2.1,0l9,9
			c0.6,0.6,0.6,1.5,0,2.1C29.2,30,28.8,30.2,28.4,30.2z"/>
	</g>
</g>
</svg>
